<svg width="56" height="56" viewBox="0 0 56 56" fill="none" xmlns="http://www.w3.org/2000/svg">
<g clip-path="url(#clip0_1992_17306)">
<path d="M48 25C48 39 32 50 28 52C24 50 8 39 8 24C8 12.9543 16.9543 4 28 4C39.0457 4 48 13.9543 48 25Z" fill="#05141F"/>
<circle cx="28" cy="24" r="14" fill="#70D7BF"/>
<path fill-rule="evenodd" clip-rule="evenodd" d="M22.4081 17.8739C22.5541 17.357 23.0258 17 23.5629 17H32.4367C32.9739 17 33.4456 17.357 33.5916 17.8739L34.8041 22.1682C35.5083 22.4778 36 23.1814 36 24V28C36 28.5523 35.5523 29 35 29V30C35 30.5523 34.5523 31 34 31H33C32.4477 31 32 30.5523 32 30V29H24V30C24 30.5523 23.5523 31 23 31H22C21.4477 31 21 30.5523 21 30V29C20.4477 29 20 28.5523 20 28V24C20 23.1816 20.4916 22.478 21.1956 22.1684L22.4081 17.8739ZM31.8313 19L32.6784 22H23.3213L24.1683 19H31.8313ZM24 26C24 26.5523 23.5523 27 23 27C22.4477 27 22 26.5523 22 26C22 25.4477 22.4477 25 23 25C23.5523 25 24 25.4477 24 26ZM34 26C34 26.5523 33.5523 27 33 27C32.4477 27 32 26.5523 32 26C32 25.4477 32.4477 25 33 25C33.5523 25 34 25.4477 34 26Z" fill="white"/>
</g>
<defs>
<clipPath id="clip0_1992_17306">
<rect width="56" height="56" fill="white"/>
</clipPath>
</defs>
</svg>
