<svg width="56" height="56" viewBox="0 0 56 56" fill="none" xmlns="http://www.w3.org/2000/svg">
<g clip-path="url(#clip0_1992_17316)">
<path fill-rule="evenodd" clip-rule="evenodd" d="M46 8H6V15H46V8ZM46 18H6V44H46V18Z" fill="#05141F"/>
<rect x="9" y="10" width="3" height="3" rx="1.5" fill="#70D7BF"/>
<rect x="14" y="10" width="3" height="3" rx="1.5" fill="#70D7BF"/>
<circle cx="41" cy="41" r="11" fill="#70D7BF"/>
<path fill-rule="evenodd" clip-rule="evenodd" d="M42 36.3554V35H40V36.3554C39.4297 36.4776 38.8974 36.7022 38.4232 37.009L37.4645 36.0502L36.0502 37.4645L37.009 38.4232C36.7022 38.8974 36.4776 39.4297 36.3554 40H35V42H36.3554C36.4776 42.5702 36.7022 43.1025 37.0089 43.5766L36.0501 44.5354L37.4643 45.9496L38.423 44.9909C38.8973 45.2977 39.4296 45.5223 40 45.6446V47H42V45.6446C42.5703 45.5224 43.1026 45.2978 43.5768 44.991L44.5354 45.9496L45.9496 44.5354L44.991 43.5768C45.2978 43.1026 45.5224 42.5703 45.6446 42H47V40H45.6446C45.5224 39.4297 45.2978 38.8974 44.991 38.4232L45.9498 37.4645L44.5355 36.0502L43.5768 37.009C43.1026 36.7022 42.5703 36.4776 42 36.3554ZM38.25 41C38.25 39.4812 39.4812 38.25 41 38.25C42.5188 38.25 43.75 39.4812 43.75 41C43.75 42.5188 42.5188 43.75 41 43.75C39.4812 43.75 38.25 42.5188 38.25 41Z" fill="white"/>
</g>
<defs>
<clipPath id="clip0_1992_17316">
<rect width="56" height="56" fill="white"/>
</clipPath>
</defs>
</svg>
