<svg width="56" height="56" viewBox="0 0 56 56" fill="none" xmlns="http://www.w3.org/2000/svg">
<g clip-path="url(#clip0_1992_17321)">
<path fill-rule="evenodd" clip-rule="evenodd" d="M26 46C37.0457 46 46 37.0457 46 26C46 14.9543 37.0457 6 26 6C14.9543 6 6 14.9543 6 26C6 29.7291 7.02061 33.2199 8.79774 36.2082L6 46.0002L15.7922 43.2025C18.7804 44.9795 22.271 46 26 46Z" fill="#05141F"/>
<path fill-rule="evenodd" clip-rule="evenodd" d="M20 26C20 27.1046 19.1046 28 18 28C16.8954 28 16 27.1046 16 26C16 24.8954 16.8954 24 18 24C19.1046 24 20 24.8954 20 26ZM28 26C28 27.1046 27.1046 28 26 28C24.8954 28 24 27.1046 24 26C24 24.8954 24.8954 24 26 24C27.1046 24 28 24.8954 28 26ZM34 28C35.1046 28 36 27.1046 36 26C36 24.8954 35.1046 24 34 24C32.8954 24 32 24.8954 32 26C32 27.1046 32.8954 28 34 28Z" fill="#70D7BF"/>
<path fill-rule="evenodd" clip-rule="evenodd" d="M50.5801 46.4096C51.4841 44.8122 52 42.9664 52 41C52 34.9249 47.0751 30 41 30C34.9249 30 30 34.9249 30 41C30 47.0751 34.9249 52 41 52C42.9664 52 44.8122 51.4841 46.4096 50.5801L51.9999 51.9999L50.5801 46.4096Z" fill="#70D7BF"/>
<path d="M41.8238 43.2969H40.1917C40.1917 42.9398 40.2144 42.6252 40.2599 42.3533C40.3092 42.0773 40.3926 41.8297 40.5101 41.6106C40.6277 41.3914 40.7869 41.1885 40.9879 41.0018C41.166 40.8435 41.3196 40.6913 41.4485 40.5452C41.5774 40.3991 41.676 40.2509 41.7442 40.1008C41.8125 39.9506 41.8466 39.7903 41.8466 39.6198C41.8466 39.4088 41.8182 39.2363 41.7613 39.1023C41.7082 38.9684 41.6267 38.869 41.5167 38.804C41.4106 38.735 41.276 38.7005 41.113 38.7005C40.9803 38.7005 40.8552 38.735 40.7376 38.804C40.6239 38.873 40.531 38.9806 40.459 39.1267C40.3869 39.2687 40.3471 39.4575 40.3395 39.6929H38.4116C38.423 39.0881 38.5481 38.597 38.787 38.2196C39.0296 37.8381 39.3519 37.5601 39.7538 37.3855C40.1594 37.207 40.6125 37.1177 41.113 37.1177C41.6665 37.1177 42.1423 37.209 42.5404 37.3916C42.9385 37.5743 43.2437 37.8462 43.456 38.2074C43.6683 38.5646 43.7745 39.0049 43.7745 39.5285C43.7745 39.8775 43.7119 40.1819 43.5868 40.4417C43.4655 40.6974 43.3006 40.9368 43.0921 41.1601C42.8873 41.3792 42.6579 41.6146 42.4039 41.8663C42.184 42.0732 42.0343 42.2843 41.9546 42.4994C41.875 42.7104 41.8314 42.9763 41.8238 43.2969ZM39.9585 45.1476C39.9585 44.8554 40.0571 44.6119 40.2542 44.4171C40.4514 44.2182 40.7073 44.1188 41.022 44.1188C41.3367 44.1188 41.5926 44.2182 41.7897 44.4171C41.9869 44.6119 42.0854 44.8554 42.0854 45.1476C42.0854 45.4399 41.9869 45.6854 41.7897 45.8843C41.5926 46.0791 41.3367 46.1765 41.022 46.1765C40.7073 46.1765 40.4514 46.0791 40.2542 45.8843C40.0571 45.6854 39.9585 45.4399 39.9585 45.1476Z" fill="white"/>
</g>
<defs>
<clipPath id="clip0_1992_17321">
<rect width="56" height="56" fill="white"/>
</clipPath>
</defs>
</svg>
