<svg width="160" height="48" viewBox="0 0 160 48" fill="none" xmlns="http://www.w3.org/2000/svg">
    <path fill-rule="evenodd" clip-rule="evenodd" d="M49.942 14.433a3.433 3.433 0 1 1-6.866 0 3.433 3.433 0 0 1 6.866 0zm85.209 15.548a3.43 3.43 0 0 1 .874 2.367v.316a3.998 3.998 0 0 1-.674 2.326 4.203 4.203 0 0 1-1.841 1.485 6.595 6.595 0 0 1-2.642.505h-5.957V20.982h5.662a5.744 5.744 0 0 1 2.494.516 4.002 4.002 0 0 1 1.684 1.442c.405.634.614 1.373.6 2.126v.21a3.253 3.253 0 0 1-.662 2.041 3.931 3.931 0 0 1-1.779 1.284 4.696 4.696 0 0 1 2.241 1.38zm-8.282-7.399v5.37h3.431a3.265 3.265 0 0 0 2.21-.732c.268-.22.484-.499.63-.814.145-.316.218-.66.212-1.007v-.232a2.353 2.353 0 0 0-.842-1.853 3.236 3.236 0 0 0-2.21-.732h-3.431zm7.135 9.764a2.442 2.442 0 0 0-.976-2.053 3.894 3.894 0 0 0-2.432-.747h-3.725v5.83h3.725a3.968 3.968 0 0 0 2.432-.732 2.394 2.394 0 0 0 .976-2.03v-.268zm6.862 4.633h-1.952V20.982h1.952V36.98zm2.947 0h10.797l.001-1.6h-8.356l8.482-13.113v-1.284h-10.503v1.6h8.104l-8.525 13.113v1.284zM115.18 24.587c0-2.206-1.425-3.591-3.917-3.591H96.756c-4.537 0-5.27 1.996-5.27 4.983v1.337a813.96 813.96 0 0 0 0 4.39c.014 3.548 1.564 5.274 5.036 5.274h13.469a3.54 3.54 0 0 0 2.753-.896l2.636-2.304h-15.256c-1.506 0-2.297-.488-2.297-1.68v-1.523s11.295-.048 13.441-.048c3.32 0 3.916-1.647 3.916-2.628l-.004-3.314zm-6.812 3.593H97.822v-2.71a1.196 1.196 0 0 1 1.251-1.343h9.243c.899 0 1.135.457 1.135 1.128v1.85a1.086 1.086 0 0 1-1.083 1.075zm-60.457-7.184h-4.705v15.988h4.709a1.805 1.805 0 0 0 1.909-1.91V22.908a1.803 1.803 0 0 0-1.913-1.911zm12.204.028h11.927c4.405 0 5.165 1.523 5.168 4.87 0 1.638-.003 3.489-.005 5.008v.004l-.002 2.502a3.582 3.582 0 0 1-3.583 3.572H55.411a1.802 1.802 0 0 1-1.909-1.909V14.433h4.704a1.802 1.802 0 0 1 1.909 1.909v4.682zm11.338 11.438c.078-.238.104-.49.077-.739l.002-5.738c0-1.094-.366-1.792-2.075-1.792h-9.343v9.467h9.624a1.747 1.747 0 0 0 1.715-1.198zm14.443-18.029H81.19v20.638a1.804 1.804 0 0 0 1.908 1.909h4.707V16.342a1.804 1.804 0 0 0-1.91-1.909zM35.47 21.84c.253-.586.492-.845 1.001-.845l4.56.003-6.569 14.814c-.409.937-.85 1.17-1.616 1.17h-5.195l-4.736-10.435s-4.286 9.384-4.348 9.488a1.549 1.549 0 0 1-1.587.947H12.38L5 20.994h6.451c.53 0 .778.26 1.041.845l4.311 9.591 4.773-10.434h4.383c.53 0 .779.26 1.041.844l4.316 9.592 4.155-9.592z" fill="#05141F"/>
</svg>
